<svg width="18" height="18" viewBox="0 0 18 18" fill="none" xmlns="http://www.w3.org/2000/svg">
<path d="M4.30713 11.1343L4.60002 10.8414V10.4272V7.19999C4.60002 4.76994 6.56997 2.79999 9.00002 2.79999C11.4301 2.79999 13.4 4.76993 13.4 7.19999V10.4272V10.8414L13.6929 11.1343L14.1586 11.6H3.84144L4.30713 11.1343ZM14.3293 11.7707C14.3292 11.7706 14.3291 11.7705 14.3291 11.7704L14.3293 11.7707ZM3.67073 11.7707L3.67092 11.7705C3.67086 11.7706 3.67079 11.7706 3.67073 11.7707L3.60002 11.7L3.67073 11.7707ZM7.62508 14.5H10.3749C10.0658 14.9243 9.5651 15.2 9 15.2C8.43489 15.2 7.93418 14.9243 7.62508 14.5Z" fill="currentColor" stroke="currentColor" stroke-width="2"/>
</svg>
